PathFileType	4	(X/Y/Z)	/Users/itak/Documents/Research/Walk-IL/dataset/trc/00125_00007.trc
DataRate	CameraRate	NumFrames	NumMarkers	Units	OrigDataRate	OrigDataStartFrame	OrigNumFrames
100.000000	100.000000	4	53	mm	100.000000	636	727
Frame#	Time	RPSI			LPSI			L3			STRN			T10			C7			CLAV			RBAK			LBAK			LSHO			LUPA			LAEL			LAOL			LWTS			LWPS			LFRA			LIFD			LHPS			LHTS			RSHO			RUPA			RAEL			RAOL			RWTS			RWPS			RFRA			RIFD			RHTS			RHPS			RBHD			LFHD			RFHD			LBHD			LHIP			RHIP			RASI			LASI			LKNE			LTHI			LANK			LTIP			LTOE			LMT1			LMT5			LHEE			RKNE			RTHI			RANK			RTIP			RTOE			RMT1			RMT5			RHEE			
		X1	Y1	Z1	X2	Y2	Z2	X3	Y3	Z3	X4	Y4	Z4	X5	Y5	Z5	X6	Y6	Z6	X7	Y7	Z7	X8	Y8	Z8	X9	Y9	Z9	X10	Y10	Z10	X11	Y11	Z11	X12	Y12	Z12	X13	Y13	Z13	X14	Y14	Z14	X15	Y15	Z15	X16	Y16	Z16	X17	Y17	Z17	X18	Y18	Z18	X19	Y19	Z19	X20	Y20	Z20	X21	Y21	Z21	X22	Y22	Z22	X23	Y23	Z23	X24	Y24	Z24	X25	Y25	Z25	X26	Y26	Z26	X27	Y27	Z27	X28	Y28	Z28	X29	Y29	Z29	X30	Y30	Z30	X31	Y31	Z31	X32	Y32	Z32	X33	Y33	Z33	X34	Y34	Z34	X35	Y35	Z35	X36	Y36	Z36	X37	Y37	Z37	X38	Y38	Z38	X39	Y39	Z39	X40	Y40	Z40	X41	Y41	Z41	X42	Y42	Z42	X43	Y43	Z43	X44	Y44	Z44	X45	Y45	Z45	X46	Y46	Z46	X47	Y47	Z47	X48	Y48	Z48	X49	Y49	Z49	X50	Y50	Z50	X51	Y51	Z51	X52	Y52	Z52	X53	Y53	Z53	

637	6.36	-195.1236114501953	1124.734619140625	1156.955322265625	-186.3680114746094	1120.92626953125	1021.248474121094	-198.7736511230469	1158.7685546875	1086.523071289062	14.31984901428223	1368.449096679688	1100.457397460938	-236.5414581298828	1308.753784179688	1086.690185546875	-214.7900390625	1602.3515625	1065.132202148438	-27.89707565307617	1501.021240234375	1089.330810546875	-265.7581787109375	1420.548461914062	1157.480346679688	-213.5511169433594	1578.326904296875	964.0025024414062	-121.6058654785156	1563.351928710938	902.4898071289062	-134.977783203125	1430.177978515625	835.5628051757812	-112.9274291992188	1212.22900390625	818.1640625	-184.3773345947266	1196.892822265625	868.3546142578125	17.95833396911621	978.105712890625	887.063720703125	-53.41001510620117	936.3506469726562	852.1386108398438	-81.55906677246094	1099.200927734375	821.4645385742188	69.40153503417969	793.3726806640625	914.3622436523438	-10.29539585113525	868.9129638671875	857.8355102539062	51.53523254394531	894.4196166992188	880.5028076171875	-169.7355346679688	1595.157470703125	1250.14111328125	-184.9542846679688	1526.113159179688	1317.610107421875	-167.9561157226562	1234.533081054688	1369.31201171875	-170.7682647705078	1220.781982421875	1274.13134765625	32.50746917724609	1035.267700195312	1384.620239257812	-37.07573318481445	1001.170593261719	1413.713256835938	-129.1808166503906	1168.804565429688	1392.832763671875	110.0328979492188	856.3713989257812	1385.7080078125	90.15040588378906	941.0723876953125	1403.61572265625	25.42097473144531	917.5859985351562	1430.301147460938	-149.8918609619141	1792.89013671875	1138.186767578125	-2.523178577423096	1821.903564453125	976.1773071289062	16.96193504333496	1844.961547851562	1103.117553710938	-177.31884765625	1774.402954101562	1007.350341796875	-77.31166839599609	1036.263916015625	920.0313110351562	-73.06201171875	1040.805786132812	1287.392456054688	8.640467643737793	1114.371215820312	1238.972534179688	20.96465682983398	1107.672729492188	973.3372192382812	87.2930908203125	548.4676513671875	957.9727172851562	21.36599540710449	689.9292602539062	931.5450439453125	-208.7696685791016	111.9086227416992	931.059814453125	-99.66085815429688	345.1158752441406	920.5068969726562	8.747063636779785	65.58724975585938	991.095703125	-68.89540863037109	77.31777954101562	1024.108032226562	-89.67176818847656	81.45744323730469	913.0016479492188	-278.8919982910156	127.1969299316406	991.0947875976562	-69.0516357421875	545.3402099609375	1243.201782226562	-47.24391937255859	826.2450561523438	1276.16552734375	-161.7856292724609	33.52275848388672	1192.347534179688	-91.46863555908203	410.635498046875	1246.318603515625	80.58382415771484	41.87707901000977	1165.21630859375	22.2425708770752	41.79439163208008	1119.3125	-31.28362655639648	42.68063354492188	1232.548828125	-212.7435913085938	38.983642578125	1136.633056640625	
638	6.37	-192.96923828125	1124.72119140625	1157.943115234375	-184.4989471435547	1121.184936523438	1022.255249023438	-196.7979736328125	1158.871215820312	1087.6357421875	16.17232322692871	1368.591796875	1101.367553710938	-234.5754089355469	1308.763427734375	1088.317993164062	-213.2213745117188	1602.435668945312	1066.985717773438	-26.15889739990234	1501.16064453125	1090.500122070312	-263.8076477050781	1420.5	1159.332397460938	-212.2597503662109	1578.460083007812	965.8499755859375	-120.4753189086914	1563.613647460938	904.0269775390625	-133.9332427978516	1430.493896484375	837.0360717773438	-111.5820922851562	1212.534057617188	819.3638916015625	-182.7886810302734	1197.168701171875	869.7842407226562	18.84132194519043	977.6050415039062	887.0836791992188	-53.04499435424805	936.319091796875	852.5835571289062	-80.49095153808594	1099.380249023438	822.2797241210938	69.06068420410156	792.4931030273438	914.24609375	-10.30738353729248	868.5665893554688	858.0462646484375	51.74318695068359	893.647216796875	880.3788452148438	-167.4760589599609	1595.068481445312	1251.831420898438	-182.4259490966797	1525.953369140625	1319.30224609375	-165.0937805175781	1234.305786132812	1370.584838867188	-168.3305969238281	1220.690673828125	1275.375732421875	35.9484748840332	1035.537719726562	1384.640258789062	-33.44575881958008	1000.989135742188	1413.965087890625	-126.0718688964844	1168.579345703125	1393.805908203125	114.0588607788086	856.90283203125	1385.039306640625	93.98446655273438	941.5115356445312	1403.197387695312	29.55177116394043	917.8162841796875	1430.107421875	-148.1895904541016	1792.869995117188	1140.062255859375	-1.274611711502075	1822.402099609375	977.5353393554688	18.52483749389648	1845.08447265625	1104.55322265625	-176.0211181640625	1774.638916015625	1009.277160644531	-75.47722625732422	1036.635375976562	920.77001953125	-70.65976715087891	1040.565551757812	1288.007690429688	10.87227916717529	1114.285888671875	1239.597412109375	22.71110534667969	1108.052856445312	973.9688110351562	87.37321472167969	548.2334594726562	959.3598022460938	22.05305862426758	689.8302001953125	932.7303466796875	-199.9652557373047	106.2345275878906	933.2142944335938	-95.57276916503906	341.2989807128906	921.8153076171875	18.20959281921387	66.2412109375	994.931640625	-59.85129165649414	75.76657104492188	1027.402465820312	-80.05070495605469	78.88117218017578	916.1728515625	-270.8741455078125	120.0384750366211	992.7445068359375	-67.82637023925781	545.1649169921875	1243.337890625	-45.09423065185547	826.017822265625	1276.427368164062	-161.7735748291016	33.54564666748047	1192.324462890625	-90.61336517333984	410.5018310546875	1246.419189453125	80.62962341308594	41.88027572631836	1165.173828125	22.27070617675781	41.79694747924805	1119.28125	-31.28073120117188	42.68962860107422	1232.526245117188	-212.7363433837891	38.98440170288086	1136.619506835938	
639	6.38	-190.8813629150391	1124.668334960938	1158.815185546875	-182.64501953125	1121.401123046875	1023.148193359375	-194.8725128173828	1158.944946289062	1088.6259765625	17.96540641784668	1368.708374023438	1102.226684570312	-232.6667633056641	1308.728759765625	1089.808959960938	-211.7131958007812	1602.477416992188	1068.732666015625	-24.49313545227051	1501.265991210938	1091.61181640625	-261.9442443847656	1420.414428710938	1161.050903320312	-210.9944610595703	1578.554077148438	967.5926513671875	-119.356071472168	1563.858154296875	905.483154296875	-132.8912353515625	1430.802124023438	838.40771484375	-110.2825393676758	1212.837768554688	820.43115234375	-181.2644653320312	1197.456787109375	871.0679321289062	19.60676574707031	977.069580078125	886.976318359375	-52.79325485229492	936.2777709960938	852.8727416992188	-79.49874877929688	1099.561157226562	822.9612426757812	68.45228576660156	791.5414428710938	914.0935668945312	-10.47246646881104	868.1874389648438	858.13623046875	51.80464935302734	892.802001953125	880.1693725585938	-165.3253631591797	1594.934448242188	1253.432739257812	-180.0229187011719	1525.741455078125	1320.88427734375	-162.36865234375	1234.028442382812	1371.734130859375	-166.0575714111328	1220.559936523438	1276.49658203125	39.09617614746094	1035.595336914062	1384.457885742188	-30.11588287353516	1000.6884765625	1414.044921875	-123.1335067749023	1168.27978515625	1394.630249023438	117.6169738769531	857.15185546875	1384.101684570312	97.44586944580078	941.6842041015625	1402.531982421875	33.32295608520508	917.8450317382812	1429.693481445312	-146.5899963378906	1792.810668945312	1141.860961914062	-0.08514112234115601	1822.877563476562	978.8764038085938	19.9885368347168	1845.186889648438	1105.975341796875	-174.7770538330078	1774.840698242188	1011.119689941406	-73.60772705078125	1036.9619140625	921.4598999023438	-68.3629150390625	1040.318969726562	1288.5546875	13.00093650817871	1114.189208984375	1240.19287109375	24.46786499023438	1108.408081054688	974.5778198242188	87.14888763427734	547.8895874023438	960.76171875	22.61045455932617	689.6627197265625	933.898681640625	-191.4548797607422	100.6679840087891	935.0626220703125	-91.75171661376953	337.5380859375	922.9694213867188	27.11170959472656	66.83935546875	998.722412109375	-51.31051635742188	74.22893524169922	1030.589233398438	-70.79689025878906	76.29523468017578	919.2283935546875	-263.1535949707031	113.066047668457	994.029541015625	-66.62454986572266	544.9859008789062	1243.454833984375	-43.11221694946289	825.78515625	1276.705200195312	-161.7660369873047	33.56182861328125	1192.296020507812	-89.76374816894531	410.36376953125	1246.487548828125	80.66907501220703	41.89162826538086	1165.14111328125	22.30803680419922	41.81049728393555	1119.249877929688	-31.28501892089844	42.69712829589844	1232.504272460938	-212.7176361083984	38.97233581542969	1136.602416992188	
640	6.390000000000001	-188.8560485839844	1124.574462890625	1159.574829101562	-180.7947845458984	1121.56591796875	1023.925415039062	-192.9903259277344	1158.981201171875	1089.493408203125	19.6990966796875	1368.793090820312	1103.043701171875	-230.8230438232422	1308.645141601562	1091.157836914062	-210.2658538818359	1602.46923828125	1070.368041992188	-22.9011058807373	1501.328491210938	1092.671997070312	-260.1643981933594	1420.281860351562	1162.621948242188	-209.7478637695312	1578.6064453125	969.2222900390625	-118.2382049560547	1564.077514648438	906.8568115234375	-131.8353271484375	1431.093872070312	839.6762084960938	-109.0200500488281	1213.135131835938	821.3673095703125	-179.8054656982422	1197.745971679688	872.1998291015625	20.24130630493164	976.4996337890625	886.76953125	-52.64178848266602	936.2218017578125	853.0048828125	-78.57892608642578	1099.738159179688	823.5177612304688	67.60662841796875	790.530517578125	913.9056396484375	-10.76958084106445	867.7821044921875	858.1022338867188	51.73823928833008	891.8987426757812	879.88916015625	-163.2989196777344	1594.748413085938	1254.943237304688	-177.7601318359375	1525.468139648438	1322.3505859375	-159.7863464355469	1233.68994140625	1372.751220703125	-163.9330444335938	1220.378784179688	1277.488647460938	41.95176315307617	1035.438232421875	1384.091552734375	-27.08212280273438	1000.274963378906	1413.96533203125	-120.369514465332	1167.902465820312	1395.309448242188	120.7085647583008	857.1150512695312	1382.922241210938	100.5341491699219	941.5848999023438	1401.64404296875	36.71839141845703	917.65234375	1429.075561523438	-145.0874786376953	1792.708129882812	1143.58642578125	1.039574027061462	1823.299438476562	980.2078247070312	21.3642578125	1845.2548828125	1107.379272460938	-173.5846710205078	1774.999755859375	1012.878479003906	-71.71672821044922	1037.236083984375	922.1061401367188	-66.17287445068359	1040.060546875	1289.038818359375	15.03352642059326	1114.0732421875	1240.766235351562	26.23846435546875	1108.729736328125	975.1704711914062	86.641845703125	547.4451293945312	962.16650390625	23.04322814941406	689.4253540039062	935.0409545898438	-183.2859344482422	95.24128723144531	936.6448974609375	-88.21393585205078	333.8643798828125	923.9913940429688	35.43839263916016	67.28746032714844	1002.416198730469	-43.28561782836914	72.65409851074219	1033.645629882812	-61.95933151245117	73.69393157958984	922.1460571289062	-255.7573852539062	106.3235702514648	995.0086669921875	-65.44671630859375	544.8006591796875	1243.5517578125	-41.30690383911133	825.5419921875	1276.993896484375	-161.762939453125	33.57057571411133	1192.262329101562	-88.91616058349609	410.2206420898438	1246.522827148438	80.69739532470703	41.91028213500977	1165.120727539062	22.34522438049316	41.82766342163086	1119.22216796875	-31.29806137084961	42.70386505126953	1232.480590820312	-212.6857299804688	38.94841384887695	1136.584594726562	
